<?xml version="1.0" encoding="UTF-8"?>
<!DOCTYPE svg PUBLIC "-//W3C//DTD SVG 1.1//EN" "http://www.w3.org/Graphics/SVG/1.1/DTD/svg11.dtd">
<svg xmlns="http://www.w3.org/2000/svg" version="1.1" width="1163px" height="1978px" style="shape-rendering:geometricPrecision; text-rendering:geometricPrecision; image-rendering:optimizeQuality; fill-rule:evenodd; clip-rule:evenodd" xmlns:xlink="http://www.w3.org/1999/xlink">
<g><path style="opacity:0.993" fill="#000000" d="M -0.5,-0.5 C 371.167,-0.5 742.833,-0.5 1114.5,-0.5C 1110.85,1.78729 1106.85,3.62063 1102.5,5C 740.06,131.054 377.727,257.388 15.5,384C 10.2873,386.017 4.95397,387.517 -0.5,388.5C -0.5,258.833 -0.5,129.167 -0.5,-0.5 Z"/></g>
<g><path style="opacity:0.993" fill="#000000" d="M 1151.5,39.5 C 1153.5,410.165 1154.17,781.165 1153.5,1152.5C 1023.5,1152.5 893.5,1152.5 763.5,1152.5C 892.833,781.5 1022.17,410.5 1151.5,39.5 Z"/></g>
<g><path style="opacity:0.986" fill="#000000" d="M 1076.5,48.5 C 1077.53,48.8966 1077.69,49.5632 1077,50.5C 986.529,137.97 896.362,225.804 806.5,314C 669.167,314.667 531.833,314.667 394.5,314C 621.972,225.57 849.305,137.07 1076.5,48.5 Z"/></g>
<g><path style="opacity:0.98" fill="#000000" d="M 1102.5,75.5 C 1103.04,75.56 1103.38,75.8933 1103.5,76.5C 1015.56,304 927.223,531.334 838.5,758.5C 837.333,621.168 837.167,483.835 838,346.5C 926.369,256.298 1014.54,165.965 1102.5,75.5 Z"/></g>
<g><path style="opacity:0.992" fill="#000000" d="M -0.5,1100.5 C -0.5,889.167 -0.5,677.833 -0.5,466.5C 104.923,426.525 210.089,385.859 315,344.5C 315.667,494.5 315.667,644.5 315,794.5C 214.195,892.304 113.695,990.471 13.5,1089C 8.94045,1093.07 4.27378,1096.9 -0.5,1100.5 Z"/></g>
<g><path style="opacity:0.995" fill="#000000" d="M 358.5,837.5 C 508.167,837.5 657.833,837.5 807.5,837.5C 767.569,942.288 727.236,1046.95 686.5,1151.5C 474.834,1152.67 263.167,1152.83 51.5,1152C 154.399,1047.6 256.732,942.769 358.5,837.5 Z"/></g>
<g><path style="opacity:0.982" fill="#000000" d="M -0.5,1351.5 C 21.8333,1351.5 44.1667,1351.5 66.5,1351.5C 66.5,1385.17 66.5,1418.83 66.5,1452.5C 109.833,1452.5 153.167,1452.5 196.5,1452.5C 196.5,1418.83 196.5,1385.17 196.5,1351.5C 218.5,1351.5 240.5,1351.5 262.5,1351.5C 262.5,1439.17 262.5,1526.83 262.5,1614.5C 240.5,1614.5 218.5,1614.5 196.5,1614.5C 196.5,1580.83 196.5,1547.17 196.5,1513.5C 153.167,1513.5 109.833,1513.5 66.5,1513.5C 66.5,1547.17 66.5,1580.83 66.5,1614.5C 44.1667,1614.5 21.8333,1614.5 -0.5,1614.5C -0.5,1526.83 -0.5,1439.17 -0.5,1351.5 Z"/></g>
<g><path style="opacity:0.99" fill="#000000" d="M 319.5,1351.5 C 385.167,1351.5 450.833,1351.5 516.5,1351.5C 516.5,1371.5 516.5,1391.5 516.5,1411.5C 472.833,1411.5 429.167,1411.5 385.5,1411.5C 385.5,1479.17 385.5,1546.83 385.5,1614.5C 363.5,1614.5 341.5,1614.5 319.5,1614.5C 319.5,1526.83 319.5,1439.17 319.5,1351.5 Z"/></g>
<g><path style="opacity:0.984" fill="#000000" d="M 555.5,1351.5 C 642.833,1351.5 730.167,1351.5 817.5,1351.5C 817.5,1371.5 817.5,1391.5 817.5,1411.5C 784.833,1411.5 752.167,1411.5 719.5,1411.5C 719.5,1478.5 719.5,1545.5 719.5,1612.5C 697.5,1612.5 675.5,1612.5 653.5,1612.5C 653.5,1545.5 653.5,1478.5 653.5,1411.5C 620.833,1411.5 588.167,1411.5 555.5,1411.5C 555.5,1391.5 555.5,1371.5 555.5,1351.5 Z"/></g>
<g><path style="opacity:0.978" fill="#000000" d="M 1162.5,1351.5 C 1162.5,1351.83 1162.5,1352.17 1162.5,1352.5C 1101.28,1439.26 1040.28,1526.26 979.5,1613.5C 954.5,1614.83 929.5,1614.83 904.5,1613.5C 924.71,1584.25 945.043,1555.08 965.5,1526C 924.167,1468 882.833,1410 841.5,1352C 870.839,1351.17 900.172,1351.33 929.5,1352.5C 955,1390.83 980.5,1429.17 1006,1467.5C 1033.29,1429.09 1060.46,1390.59 1087.5,1352C 1112.5,1351.5 1137.5,1351.33 1162.5,1351.5 Z"/></g>
<g><path style="opacity:0.98" fill="#000000" d="M 437.5,1977.5 C 428.167,1977.5 418.833,1977.5 409.5,1977.5C 363.717,1972.53 328.217,1950.87 303,1912.5C 301.599,1910.85 301.432,1909.19 302.5,1907.5C 320.833,1898.83 339.167,1890.17 357.5,1881.5C 378.42,1908.94 406.087,1919.77 440.5,1914C 467.516,1907.48 486.849,1891.65 498.5,1866.5C 464.507,1865.5 430.507,1865.17 396.5,1865.5C 396.5,1845.5 396.5,1825.5 396.5,1805.5C 430.507,1805.83 464.507,1805.5 498.5,1804.5C 483.785,1772.63 458.785,1755.96 423.5,1754.5C 395.881,1755.39 373.715,1766.73 357,1788.5C 338.285,1779.89 319.785,1770.89 301.5,1761.5C 321.385,1728.47 350.052,1706.97 387.5,1697C 442.572,1685.36 490.072,1699.2 530,1738.5C 569.088,1784.02 578.088,1835.02 557,1891.5C 532.69,1941.63 492.857,1970.3 437.5,1977.5 Z"/></g>
<g><path style="opacity:0.985" fill="#000000" d="M 0.5,1704.5 C 22.5,1704.5 44.5,1704.5 66.5,1704.5C 66.5,1738.17 66.5,1771.83 66.5,1805.5C 109.833,1805.5 153.167,1805.5 196.5,1805.5C 196.5,1771.83 196.5,1738.17 196.5,1704.5C 218.5,1704.5 240.5,1704.5 262.5,1704.5C 262.5,1791.5 262.5,1878.5 262.5,1965.5C 240.5,1965.5 218.5,1965.5 196.5,1965.5C 196.5,1932.17 196.5,1898.83 196.5,1865.5C 153.167,1865.5 109.833,1865.5 66.5,1865.5C 66.5,1898.83 66.5,1932.17 66.5,1965.5C 44.5,1965.5 22.5,1965.5 0.5,1965.5C 0.5,1878.5 0.5,1791.5 0.5,1704.5 Z"/></g>
<g><path style="opacity:0.984" fill="#000000" d="M 584.5,1704.5 C 671.833,1704.5 759.167,1704.5 846.5,1704.5C 846.5,1724.5 846.5,1744.5 846.5,1764.5C 813.833,1764.5 781.167,1764.5 748.5,1764.5C 748.5,1831.5 748.5,1898.5 748.5,1965.5C 726.5,1965.5 704.5,1965.5 682.5,1965.5C 682.5,1898.5 682.5,1831.5 682.5,1764.5C 649.833,1764.5 617.167,1764.5 584.5,1764.5C 584.5,1744.5 584.5,1724.5 584.5,1704.5 Z"/></g>
<g><path style="opacity:0.985" fill="#000000" d="M 889.5,1704.5 C 911.5,1704.5 933.5,1704.5 955.5,1704.5C 955.333,1756.83 955.5,1809.17 956,1861.5C 1000.17,1809.33 1044.33,1757.17 1088.5,1705C 1109.16,1704.5 1129.83,1704.33 1150.5,1704.5C 1150.5,1791.5 1150.5,1878.5 1150.5,1965.5C 1128.5,1965.5 1106.5,1965.5 1084.5,1965.5C 1084.67,1913.17 1084.5,1860.83 1084,1808.5C 1039.83,1860.67 995.667,1912.83 951.5,1965C 930.836,1965.5 910.169,1965.67 889.5,1965.5C 889.5,1878.5 889.5,1791.5 889.5,1704.5 Z"/></g>
</svg>
